<svg id="Layer_1" data-name="Layer 1" xmlns="http://www.w3.org/2000/svg" viewBox="0 0 477.03 605.3"><defs><style>.cls-1{fill:none;stroke:#000;stroke-miterlimit:10;stroke-width:14px;}</style></defs><title>ADOPTIO ICON</title><path d="M424.75,806.27S481.41,760.2,454,694.2s-60.39-107.09-68.49-125.76-11.83-47.32-13.07-62.26c0,0,7.47-54.17,5-63.51S370,369.82,370,369.82l2.49-16.18s12.45-32.38,24.28-47.94,24.28-34.25,24.91-36.11S454,231,454,231L469,214.17s11.83-2.49,16.19,3.74,10,23,10,23l-5.6,3.11s0-10.59-5-16.19S469,226.63,469,226.63L427.86,272.7s-23,46.69-31.13,54.17-21.79,31.75-13.7,81.56,3.12,97.12,3.12,97.12-6.23,6.85,6.85,34.25,27.39,54.79,27.39,54.79,43,77.2,47.94,92.76,6.23,55.42,6.23,55.42l-9.34,18.67-19.93,34.87-3.73,4.36Z" transform="translate(-369.96 -213.68)"/><path d="M484.36,640.19s-33.15-31.75-28-57.9c-4.21-11.21-34.56-58.84-34.56-58.84s-6.54-13.54-13.54-56-12.14-64.91-4.2-71.45a28.57,28.57,0,0,1,17.74-6.07s2.34-23.81,7.94-34.55,15.41-37.36,15.41-39.22-16.34,7.47-8.41-17.28c8.41-10.74,22.88-28,23.35-29.42s9.34-4.2,16.34-10.74,8.41-25.22,51.37-15.88,39.69,13.55,39.69,13.55,12.14,4.2,11.21,14.94,46.69,31.75,46.69,31.75,5.14,1.4,7,4.67,0,9.81,0,9.81-1.66,26.15-28.15,34.08a98.43,98.43,0,0,1-49.83,1.4s-9.34,2.81-1.87,15.41,36.89,22.88,47.63,39.23L610.91,424s6.07-23.35,55.57-31.28c15.87-2.81,17.27-2.34,17.27-2.34s-43.89-5.29-49.18-23,3.42-16.81,5.6-23,4.05-15.57,5.29-27.09,10.59-18.36,10.59-18.36,1.55-7.16-3.43-16.81-1.87-10-1.87-10,18.68,6.84,21.17,2.8.31-19.61.31-19.61l-3.42-18.68S673.48,234.1,695,249s52.3,34.55,69.73,53.54,35.49,38.29,35.18,62.89S794.58,391,794.58,391s-19.3-3.73-29,10.59S735.74,451.7,732,467.26s-20.85,67.87-35.8,73.47-29,30.2-52.29,43.58-31.76,68.49-31.76,68.49.63,62.26,9.65,91.52,13.7,37.67,15.88,41.41,9,6.84,9,6.84l-15,16.19s-14.94-25.52-16.49-48.25-5-47.32-5-47.32L607.48,697s-5.41,68.49-7.53,76.27-12.7,37.05-15.5,37.05-16.19-15.57-16.19-15.57,20.55-11.2,24.9-40.47,11.88-64.75,11.08-68.17,5-32.69-4.29-57.59-43.83-60.4-87.41-94.95c0,0-16.81-24.28-23-43s-21.79-70.35-31.44-77.83-8.41-14-16.5-16.18-42.65-11.83-33.93,26.77,10.58,46.69,10.58,46.69-.62,32.38,19.61,57.28c7.47,13.39,21.79,39.23,21.79,39.23a93.36,93.36,0,0,1,9.65,28.95C472.07,612.64,484.36,640.19,484.36,640.19Z" transform="translate(-369.96 -213.68)"/><path d="M792.2,806.27S735.54,760.2,762.93,694.2s60.4-107.09,68.49-125.76,11.83-47.32,13.08-62.26c0,0-7.48-54.17-5-63.51S847,369.82,847,369.82l-2.49-16.18S832,321.26,820.21,305.7s-24.28-34.25-24.9-36.11S762.93,231,762.93,231L748,214.17s-11.83-2.49-16.19,3.74-10,23-10,23l5.61,3.11s0-10.59,5-16.19S748,226.63,748,226.63l41.09,46.07s23,46.69,31.13,54.17,21.79,31.75,13.7,81.56-3.11,97.12-3.11,97.12S837,512.4,824,539.8s-27.4,54.79-27.4,54.79-43,77.2-47.94,92.76-6.22,55.42-6.22,55.42l9.34,18.67,19.92,34.87,3.74,4.36Z" transform="translate(-369.96 -213.68)"/><path d="M726.71,268.55s-8.12-16.89-6.22-23l1.89-6.14,5.07,4.69s-2,11.62.92,17.64S734,275.19,734,275.19Z" transform="translate(-369.96 -213.68)"/><path class="cls-1" d="M421.32,392.55s2.81-31.13,9-38.6,12.77-36.74,12.77-36.74-14.64-.62-7.48-12.76A227.55,227.55,0,0,1,450.9,282s12.45-19,15.25-20.24,9.65,0,9.65,0,8.1-14.63,13.7-17.74,30.82-8.41,52.92,0S572,257.28,572,257.28s7.16,3.9,8.41,14.8S584.76,283,584.76,283s32.37,17.75,34.24,17.75,10.27,4.35,10.27,5.91,11.21-1.87,3.74,16.81-28.77,31.13-28.77,31.13-25.4,6.23-39.72,3.74-11.83-5-11.83-5-7.47,14.94,12.46,28,43.27,33.62,45.45,38.6,11.51-19,27.39-22.1l44.52-8.71s-40.78.31-48.25-25.22c-2.18-15.25,4.66-17.43,4.66-17.43s4.67-10.39,4.67-16.4,4.36-25.94,9.65-29.68,3.43-12.14,3.43-12.14-7.16-10-7.16-14.63,20.86,6.85,24,1.56-2.18-24.91-2.18-24.91l-1.87-10.91s.83-9.63,32.69,13.09S765.63,301,765.63,301s29,27.7,31.75,46.38-3.43,43-3.43,43-24.28-5.29-43.89,39.23S711.77,523,711.77,523s-39.85,44.82-56.35,52.92S616.2,630.7,616.2,630.7s-7.47,26.77-5,38.6,5,54.48,5,54.48L629,771.41s13.39,23,16.5,23S633,809.38,633,809.38s-14.94-13.69-17.12-33-4.36-43.27-4.36-43.27l-4-35.8s-5.6,65.06-8.09,75.95-12.45,35.8-15.88,36.11-14.63-16.49-14.63-16.49A37,37,0,0,0,586.63,772c5.29-15.26,15.56-62.57,16.18-71.29s6.23-52.61-3.73-72.85-26.77-46.38-40.16-55.41-51-43.58-51-43.58l-19.3-46.07s-18.06-45.76-23.66-55.41-9.34-29-27.71-31.76-34.87,1.56-29.26,29.27,12.14,65.37,12.14,65.37l12.45,30.2s33,50.12,34.24,59.14" transform="translate(-369.96 -213.68)"/><path d="M734,638.39s14.68-33.62,14.68-47.63S772,538.46,772,538.46s26-39.22,26.09-56,12.2-62.58,12.2-62.58-1.3-19.3-12.2-24.28,17.8-10.27,18.74,14.94-7.47,56-7.47,56,2.8,22.13-17.75,56.83a437.35,437.35,0,0,0-31.75,65.51s-2.23,22.43-13.07,33.62S734,638.39,734,638.39Z" transform="translate(-369.96 -213.68)"/></svg>