<?xml version="1.0" standalone="no"?>
<!DOCTYPE svg PUBLIC "-//W3C//DTD SVG 20010904//EN"
 "http://www.w3.org/TR/2001/REC-SVG-20010904/DTD/svg10.dtd">
<svg version="1.0" xmlns="http://www.w3.org/2000/svg"
 width="512.000000pt" height="512.000000pt" viewBox="0 0 512.000000 512.000000"
 preserveAspectRatio="xMidYMid meet">

<g transform="translate(0.000000,512.000000) scale(0.100000,-0.100000)"
fill="#000000" stroke="none">
<path d="M1565 4946 c-84 -21 -147 -57 -211 -121 -98 -97 -134 -197 -134 -370
l0 -95 -300 0 -300 0 0 -858 0 -858 -75 -53 c-158 -114 -336 -331 -419 -513
-43 -95 -81 -212 -103 -318 -24 -118 -24 -382 0 -500 59 -281 174 -496 372
-696 201 -203 422 -322 705 -381 106 -22 370 -24 480 -4 273 49 522 180 721
380 58 58 120 127 138 154 l32 47 1324 0 1325 0 0 1800 0 1800 -300 0 -300 0
0 95 c0 172 -36 272 -135 371 -176 177 -452 177 -631 -1 -98 -97 -134 -197
-134 -370 l0 -95 -150 0 -150 0 0 95 c0 172 -36 272 -135 371 -176 177 -452
177 -631 -1 -98 -97 -134 -197 -134 -370 l0 -95 -150 0 -150 0 0 95 c0 172
-36 272 -135 371 -112 113 -269 158 -420 120z m175 -306 c60 -31 80 -78 80
-190 l0 -90 -150 0 -150 0 0 93 c1 109 17 147 76 183 48 29 92 30 144 4z
m1200 0 c60 -31 80 -78 80 -190 l0 -90 -150 0 -150 0 0 93 c1 109 17 147 76
183 48 29 92 30 144 4z m1200 0 c60 -31 80 -78 80 -190 l0 -90 -150 0 -150 0
0 93 c1 109 17 147 76 183 48 29 92 30 144 4z m-2920 -730 l0 -150 150 0 150
0 0 150 0 150 450 0 450 0 0 -150 0 -150 150 0 150 0 0 150 0 150 450 0 450 0
0 -150 0 -150 150 0 150 0 0 150 0 150 450 0 450 0 0 -300 0 -300 -1950 0
-1950 0 0 300 0 300 150 0 150 0 0 -150z m3600 -1800 l0 -1050 -1099 0 -1100
0 18 53 c41 118 56 226 56 397 -1 182 -14 268 -66 426 -66 203 -166 361 -329
524 -160 161 -308 255 -507 324 -248 85 -514 98 -763 36 -41 -10 -83 -21 -92
-25 -17 -7 -18 6 -18 179 l0 186 1950 0 1950 0 0 -1050z m-3230 422 c198 -52
365 -146 501 -281 135 -135 226 -297 282 -501 29 -109 29 -371 0 -480 -56
-204 -147 -366 -282 -501 -135 -135 -297 -226 -501 -282 -109 -29 -371 -29
-480 0 -204 56 -366 147 -501 282 -386 387 -411 1000 -57 1421 153 182 404
323 638 359 98 15 311 6 400 -17z"/>
<path d="M3020 2710 l0 -150 300 0 300 0 0 150 0 150 -300 0 -300 0 0 -150z"/>
<path d="M3920 2710 l0 -150 300 0 300 0 0 150 0 150 -300 0 -300 0 0 -150z"/>
<path d="M3020 2110 l0 -150 300 0 300 0 0 150 0 150 -300 0 -300 0 0 -150z"/>
<path d="M3920 2110 l0 -150 300 0 300 0 0 150 0 150 -300 0 -300 0 0 -150z"/>
<path d="M3020 1510 l0 -150 300 0 300 0 0 150 0 150 -300 0 -300 0 0 -150z"/>
<path d="M3920 1510 l0 -150 300 0 300 0 0 150 0 150 -300 0 -300 0 0 -150z"/>
<path d="M1200 1810 l0 -450 300 0 300 0 0 150 0 150 -150 0 -150 0 0 300 0
300 -150 0 -150 0 0 -450z"/>
</g>
</svg>
