<svg id="Layer_1" data-name="Layer 1" xmlns="http://www.w3.org/2000/svg" viewBox="0 0 233.38 197.56"><title>MATING ICON</title><path d="M532.73,433.71s3.9,32.91-4.47,36.54-36.53,8.36-39-27.89,40.44-46,40.44-46,24.54-4.18,35.42,13.11c2.51,4.32,5.16,5.3,5.16,5.3l29.42,1.11s19.1.56,20.08,7.67.69,22.73-9.21,29.7-16.45,10.32-44.2,10c-21.75,10.74-15.89,36.12-15.89,36.12s-2.51,13.8,16.59,30.54,32.91,25.23,41.13,29.28,29.15,10.32,29.15,10.32-15.76-7.25-20.22-9.76-37.23-24.55-37.23-24.55-24.27-24.54-24.13-38.2.42-22.45,12.69-26.5,23.85,0,33.33-5.43,20.64-16.18,22.73-25.24,5.71-22.31-15.06-26.77a194.23,194.23,0,0,0-36.81-4.47,48,48,0,0,0-35.14-18.12c-23.15-1.12-40.16,17.15-40.16,17.15s-18.83,19.94-11.43,47.27,37.23,22.7,37.23,22.7,16.73-3.92,13.24-23.26L532.87,435Z" transform="translate(-484.16 -376.71)"/><path d="M619.18,414.89s-2.51-14.78,10.46-14.22,17.57-3.77,17.57-3.77,5-11.85,2.37-17.85,19.38,1.4,19.38,1.4,9.34,7.11,11.15,18c4.88,2.93,33.75,16.74,36.26,48.11,4.18,31.07-4.19,51.45-4.19,51.45s-17.43,32.08-24.82,38.35c14.51-27.47,19.8-42.11,19.8-42.11s11.16-31.79,2.38-49.22-10.18-25.24-22.18-35.42c-11.43-5.58-12.55-6.41-12.55-6.41s-.13-9.45-4.6-12.74-6.83-5.39-12.55-7.48c-1.81-.7-2.37-.42-2.37-.42s-.28,9.48-1.95,12.69-2,8.64-12.41,10.46-13.11,1-13.11,1-3.9-1.25-3.34,6.14a5.27,5.27,0,0,1-4.41,4.5Z" transform="translate(-484.16 -376.71)"/><path d="M605,418.86s-14-2.93-11.72,14.43,8.37,21.55,8.37,21.55,6.27,7.74,23.63,13.38,23.43,9.39,23.43,9.39,10,14.25-2.51,31.61A328.18,328.18,0,0,1,619,541.64L590.8,561.3l-11.71,6.48s-33.26-17.15-43.3-26.35S518,525.11,518,525.11l-3.14-2.71s9.83,15.26,16.1,20.08,25.52,17.77,25.52,17.77l23.64,14,28.65-17.57s25.73-20.71,27-22.38,18.2-25.1,18.2-25.1,11.92-27.19,0-36.81-38.28-14.23-38.28-14.23-14.64-5.22-16.31-17.36.63-16.73.63-16.73Z" transform="translate(-484.16 -376.71)"/></svg>